<svg width="133" height="40" xmlns="http://www.w3.org/2000/svg"><defs><linearGradient x1="62.024%" y1="4.946%" x2="24.442%" y2="71.879%" id="a"><stop stop-color="#00A0FF" offset="0%"/><stop stop-color="#00A1FF" offset="1%"/><stop stop-color="#00BEFF" offset="26%"/><stop stop-color="#00D2FF" offset="51%"/><stop stop-color="#00DFFF" offset="76%"/><stop stop-color="#00E3FF" offset="100%"/></linearGradient><linearGradient x1="107.571%" y1="49.942%" x2="-130.383%" y2="49.942%" id="b"><stop stop-color="#FFE000" offset="0%"/><stop stop-color="#FFBD00" offset="41%"/><stop stop-color="orange" offset="78%"/><stop stop-color="#FF9C00" offset="100%"/></linearGradient><linearGradient x1="86.013%" y1="33.023%" x2="-49.97%" y2="126.457%" id="c"><stop stop-color="#FF3A44" offset="0%"/><stop stop-color="#C31162" offset="100%"/></linearGradient><linearGradient x1="-19.053%" y1="-8.115%" x2="41.881%" y2="35.996%" id="d"><stop stop-color="#32A071" offset="0%"/><stop stop-color="#2DA771" offset="7%"/><stop stop-color="#15CF74" offset="48%"/><stop stop-color="#06E775" offset="80%"/><stop stop-color="#00F076" offset="100%"/></linearGradient></defs><g fill="none"><path d="M9.358.64c-.36 0-.716 0-1.075.003-.3.002-.598.007-.902.012-.659.007-1.316.064-1.966.169-.65.107-1.279.31-1.866.6A6.314 6.314 0 001.96 2.55 5.993 5.993 0 00.804 4.1a6.198 6.198 0 00-.613 1.82 12.11 12.11 0 00-.176 1.914c-.01.293-.01.587-.015.88v22.1c.005.296.006.584.015.88.008.642.066 1.282.176 1.915.108.634.315 1.248.613 1.82a5.945 5.945 0 001.156 1.544A6.175 6.175 0 003.55 38.1c.586.29 1.215.494 1.865.603.65.104 1.307.16 1.966.169.304.006.602.01.902.01.36.002.715.002 1.075.002l114.29.123c.352 0 .71 0 1.064-.002.299 0 .605-.004.904-.01a13.369 13.369 0 001.963-.17 6.802 6.802 0 001.873-.603 6.156 6.156 0 001.587-1.126 6.125 6.125 0 001.16-1.544 6.2 6.2 0 00.607-1.82c.11-.633.17-1.273.183-1.915.003-.296.003-.584.003-.88.008-.348.008-.694.008-1.047V9.88c0-.35 0-.697-.008-1.043 0-.293 0-.587-.003-.88a12.59 12.59 0 00-.183-1.915 6.213 6.213 0 00-.607-1.82 6.267 6.267 0 00-2.747-2.676 6.766 6.766 0 00-1.873-.6 13.132 13.132 0 00-1.963-.169c-.299-.004-.605-.01-.904-.012-.353-.002-.712-.002-1.064-.002L9.358.641z" fill="#A6A6A6"/><path d="M8.365 38.88c-.299 0-.59-.004-.887-.01a12.496 12.496 0 01-1.832-.16 5.787 5.787 0 01-1.623-.534 5.297 5.297 0 01-1.37-.992 5.19 5.19 0 01-1-1.362 5.56 5.56 0 01-.532-1.616 11.919 11.919 0 01-.163-1.828c-.007-.206-.015-.89-.015-.89V8.957s.009-.674.015-.872c.007-.612.061-1.222.162-1.826.093-.564.273-1.11.533-1.62a5.454 5.454 0 012.37-2.36 5.727 5.727 0 011.62-.532 12.396 12.396 0 011.838-.16l.884-.011 116.265.125.895.012c.61.007 1.22.06 1.822.159a5.84 5.84 0 011.637.534 5.469 5.469 0 012.367 2.36 5.6 5.6 0 01.525 1.608c.102.609.158 1.224.17 1.84.003.277.003.573.003.869.008.365.008.713.008 1.064V30.56c0 .354 0 .7-.008 1.049 0 .317 0 .607-.004.906-.011.606-.067 1.21-.167 1.808a5.577 5.577 0 01-.53 1.629c-.258.5-.594.955-.995 1.35-.4.404-.864.741-1.372.998-.514.26-1.066.44-1.634.536a12.37 12.37 0 01-1.833.16c-.287.006-.587.01-.88.01l-1.062.002L8.365 38.88z" fill="#000"/><path d="M66.485 22.123a4.165 4.165 0 00-3.006 1.21 4.137 4.137 0 00-1.221 2.993 4.147 4.147 0 001.227 2.984 4.175 4.175 0 003 1.21 4.175 4.175 0 003-1.21 4.147 4.147 0 001.227-2.984 4.137 4.137 0 00-1.22-2.994 4.165 4.165 0 00-3.007-1.21zm0 6.739a2.439 2.439 0 01-1.723-.77 2.423 2.423 0 01-.653-1.766 2.413 2.413 0 01.646-1.775 2.43 2.43 0 011.73-.77 2.43 2.43 0 011.73.77c.448.48.681 1.12.646 1.775a2.423 2.423 0 01-.653 1.766 2.439 2.439 0 01-1.723.77zm-9.217-6.74a4.165 4.165 0 00-3.006 1.21 4.137 4.137 0 00-1.22 2.994 4.147 4.147 0 001.227 2.984 4.175 4.175 0 003 1.21 4.175 4.175 0 003-1.21 4.147 4.147 0 001.227-2.984 4.137 4.137 0 00-1.232-3.005 4.165 4.165 0 00-3.025-1.198h.03zm0 6.74a2.439 2.439 0 01-1.723-.77 2.423 2.423 0 01-.653-1.766 2.413 2.413 0 01.647-1.775 2.43 2.43 0 011.73-.77 2.43 2.43 0 011.73.77c.447.48.68 1.12.645 1.775.03.657-.21 1.298-.663 1.776a2.44 2.44 0 01-1.742.76h.03zM46.27 23.415v1.776h4.276a3.714 3.714 0 01-.99 2.24 4.403 4.403 0 01-3.306 1.302 4.7 4.7 0 01-3.34-1.39 4.669 4.669 0 01-1.353-3.346 4.669 4.669 0 011.354-3.345 4.7 4.7 0 013.339-1.39 4.572 4.572 0 013.217 1.272l1.268-1.253a6.258 6.258 0 00-4.485-1.796c-3.627-.006-6.584 2.898-6.633 6.512.049 3.617 3.004 6.523 6.633 6.522a6.02 6.02 0 004.564-1.825 5.909 5.909 0 001.544-4.164 5.37 5.37 0 00-.099-1.115h-5.99zm44.856 1.381a3.958 3.958 0 00-3.604-2.673 3.966 3.966 0 00-2.895 1.245 3.939 3.939 0 00-1.065 2.958 4.097 4.097 0 001.195 2.981 4.125 4.125 0 002.983 1.212 4.172 4.172 0 003.495-1.865l-1.436-.986a2.388 2.388 0 01-2.069 1.154 2.149 2.149 0 01-2.05-1.273l5.634-2.289-.188-.464zm-5.742 1.45a2.284 2.284 0 01.58-1.686 2.3 2.3 0 011.618-.76 1.634 1.634 0 011.564.888l-3.762 1.559zM80.8 30.313h1.851V17.978h-1.85v12.334zm-3.03-7.203h-.059a2.915 2.915 0 00-2.217-.986 4.18 4.18 0 00-4.059 4.213 4.16 4.16 0 004.04 4.183 2.855 2.855 0 002.217-.986h.06v.66c0 1.609-.862 2.467-2.248 2.467a2.326 2.326 0 01-2.089-1.48l-1.614.661a4.02 4.02 0 003.733 2.487c2.168 0 4.009-1.273 4.009-4.371V22.42H77.77v.69zm-2.118 5.802a2.42 2.42 0 01-1.706-.771 2.403 2.403 0 01-.64-1.755 2.422 2.422 0 01.635-1.768 2.439 2.439 0 011.711-.787 2.37 2.37 0 011.67.8c.423.483.632 1.116.578 1.755a2.344 2.344 0 01-.605 1.706 2.36 2.36 0 01-1.643.77v.05zm24.136-10.933h-4.425v12.334h1.811v-4.677h2.574a3.954 3.954 0 004.06-3.828 3.954 3.954 0 00-4.02-3.878v.05zm0 5.92h-2.614v-4.222h2.624a2.142 2.142 0 011.524.606c.407.397.639.938.644 1.505a2.145 2.145 0 01-2.128 2.082l-.05.03zm11.415-1.766a3.467 3.467 0 00-3.297 1.885l1.643.68a1.744 1.744 0 011.683-.897c.475-.055.952.082 1.324.38.373.3.609.734.656 1.208v.129a3.97 3.97 0 00-1.93-.484c-1.762 0-3.564.987-3.564 2.783.035.77.381 1.491.96 2.003a2.867 2.867 0 002.109.71 2.616 2.616 0 002.356-1.204h.07v.987h1.781v-4.726c0-2.3-1.623-3.483-3.742-3.483l-.05.03zm-.169 6.73c-.604 0-1.455-.296-1.455-1.046 0-.987 1.05-1.322 1.98-1.322a3.335 3.335 0 011.693.414 2.245 2.245 0 01-2.218 1.954zm10.474-6.493l-2.118 5.348h-.06l-2.197-5.348h-1.98l3.296 7.48-1.88 4.153h1.92l5.078-11.633h-2.059zm-16.641 7.894h1.85V17.929h-1.85v12.334z" fill="#FFF"/><path d="M9.913 7.305a1.926 1.926 0 00-.498 1.411v22.292a1.926 1.926 0 00.498 1.411L10 32.5l13-12.53v-.292L10 7.235l-.087.07z" fill="url(#a)"/><path d="M26.469 24.035L22.5 20l.138-.32 3.84-4.067.084.05 4.535 2.737c1.299.779 1.299 2.06 0 2.847L26.6 23.985l-.13.05z" fill="url(#b)"/><path d="M22.5 20L9.825 32.041c.6.526 1.496.556 2.13.071l15.007-8.383L22.5 20z" fill="url(#c)"/><path d="M26.962 15.928l-15-8.385a1.684 1.684 0 00-2.137.061L22.5 20l4.462-4.072z" fill="url(#d)"/><path d="M26.287 24.035L12.37 31.989c-.568.43-1.35.43-1.917 0l-.077.077.077.067c.567.431 1.35.431 1.917 0l14.041-8.002-.124-.096z" fill="#000" opacity=".2"/><path d="M9.142 32.253a2.852 2.852 0 01-.434-1.668v.18c-.03.614.124 1.22.434 1.691l.076-.096-.076-.107zM31.143 21.73l-4.732 3.13.086.11 4.628-3.075c.538-.298.899-.91.946-1.603-.105.62-.447 1.149-.928 1.438z" fill="#000" opacity=".12"/><path d="M11.928 7.645l19.16 10.481a1.8 1.8 0 01.983 1.23 1.658 1.658 0 00-.983-1.362L11.928 7.513c-1.375-.757-2.495-.132-2.495 1.381v.142c0-1.514 1.169-2.138 2.495-1.39z" fill="#FFF" opacity=".25"/><path d="M39.617 13.739v-5.61h2.178c.95-.034 1.875.246 2.56.777.638.546.97 1.28.916 2.028.041.754-.307 1.489-.962 2.029-.686.53-1.611.81-2.56.776h-2.132zm.892-.692h1.286c.703.03 1.393-.168 1.912-.552.491-.42.747-.984.707-1.56.038-.574-.218-1.136-.707-1.553-.518-.387-1.207-.59-1.912-.56H40.51v4.225zm5.819.694V8.127h.727v5.614zm4.182-.001a3.083 3.083 0 01-1.46-.378c-.477-.254-.813-.64-.944-1.079l.806-.26c.098.292.307.555.598.755.274.194.63.302 1 .306a1.91 1.91 0 00.99-.243c.268-.144.424-.385.414-.639.018-.272-.137-.535-.414-.7a5.057 5.057 0 00-1.289-.46 3.745 3.745 0 01-1.391-.575c-.311-.235-.482-.561-.472-.9 0-.388.214-.758.587-1.015.42-.29.969-.442 1.53-.423.512-.021 1.017.1 1.426.342.331.185.58.445.713.746l-.805.261a1.007 1.007 0 00-.437-.468 1.593 1.593 0 00-.875-.224 1.677 1.677 0 00-.874.224c-.23.13-.366.337-.368.558.003.2.127.386.334.503.297.167.627.295.977.378.294.066.583.148.863.243.245.088.476.196.69.324.228.127.41.297.53.494.123.218.186.454.183.692.006.244-.065.485-.207.702a1.425 1.425 0 01-.552.485 2.918 2.918 0 01-.736.28 3.59 3.59 0 01-.817.071h0zm4.083.001h-.77V8.127h1.95c.476-.006.937.165 1.286.477.354.304.55.742.536 1.198.014.453-.182.888-.536 1.188-.349.312-.81.483-1.287.478h-1.18v2.273zm0-2.966h1.257a.996.996 0 00.76-.3.963.963 0 00.293-.673.917.917 0 00-.292-.674.995.995 0 00-.76-.309h-1.258v1.956zm8.789 2.159c-.53.529-1.26.821-2.017.807a2.783 2.783 0 01-2.018-.807 2.73 2.73 0 01-.807-2 2.659 2.659 0 01.807-1.99 2.717 2.717 0 012.018-.816 2.727 2.727 0 012.017.816 2.73 2.73 0 01.816 1.99 2.738 2.738 0 01-.816 2h0zm-3.503-.457c.39.396.932.617 1.495.61a2.04 2.04 0 001.494-.61c.415-.41.637-.968.615-1.543a2.055 2.055 0 00-.615-1.542 2.04 2.04 0 00-1.494-.61 2.059 2.059 0 00-1.495.61c-.408.412-.626.97-.605 1.542-.021.574.197 1.13.605 1.543zm5.263 1.264V8.127h.96l2.97 4.37h0v-4.37h.786v5.614h-.817L65.98 9.166h0v4.576zm5.711 0V8.127h.726v5.614zm1.835-.009V8.127h2.502a2.315 2.315 0 011.407.439c.39.27.61.668.6 1.084.004.253-.089.5-.266.71a1.432 1.432 0 01-.703.504h0c.336.087.63.257.841.486.22.226.338.506.335.794.012.436-.216.853-.623 1.14-.4.301-.93.465-1.476.457l-2.617-.01zm.888-3.204h1.614a1.13 1.13 0 00.807-.271.774.774 0 00.311-.589.794.794 0 00-.3-.588 1.103 1.103 0 00-.772-.262h-1.66v1.71zm0 2.512h1.787c.333.016.654-.099.865-.308a.853.853 0 00.323-.635.855.855 0 00-.323-.626 1.301 1.301 0 00-.865-.29h-1.787v1.86zm4.772.701V8.127h.862v4.922h2.91v.692zm8.489-4.921h-2.943v1.777h2.652v.674h-2.652v1.778h2.943v.692h-3.773V8.127h3.773zm6.603 0h-2.943v1.777h2.652v.674h-2.652v1.778h2.943v.692h-3.773V8.127h3.773zm1 4.921V8.127h.96l2.97 4.37h0v-4.37h.786v5.614h-.817l-3.062-4.575h0v4.576z" stroke="#FFF" stroke-width=".2" fill="#FFF"/></g></svg>