<svg width="118" height="38" xmlns="http://www.w3.org/2000/svg"><g fill="none"><path d="M108.3 0H9.375c-.36 0-.717 0-1.077.002-.3.002-.6.007-.903.012-.66.007-1.32.063-1.97.166a6.762 6.762 0 00-1.87.591 6.326 6.326 0 00-1.592 1.11c-.469.447-.86.963-1.158 1.528A6.04 6.04 0 00.19 5.203a11.7 11.7 0 00-.176 1.886c-.01.29-.01.58-.015.868v21.78c.005.293.006.577.015.87.008.631.067 1.262.176 1.886.108.624.316 1.23.615 1.794a5.875 5.875 0 001.158 1.521c.465.45 1.003.825 1.592 1.11a6.79 6.79 0 001.87.595c.65.103 1.31.158 1.97.167.304.006.602.01.903.01.36.002.716.002 1.077.002h98.923c.354 0 .713 0 1.066-.002.3 0 .607-.004.907-.01a13.612 13.612 0 001.966-.167 6.896 6.896 0 001.877-.594 6.168 6.168 0 001.59-1.11c.468-.446.86-.96 1.162-1.522.297-.565.502-1.17.609-1.794.11-.624.17-1.255.182-1.887.004-.292.004-.576.004-.868.008-.343.008-.683.008-1.031V8.986c0-.345 0-.688-.008-1.029 0-.289 0-.579-.004-.868a12.212 12.212 0 00-.182-1.886 6.054 6.054 0 00-.61-1.794 6.232 6.232 0 00-2.751-2.638 6.86 6.86 0 00-1.877-.59 13.37 13.37 0 00-1.966-.167c-.3-.005-.607-.01-.907-.012C109.012 0 108.653 0 108.3 0z" fill="#A6A6A6"/><path d="M8.304 36.867c-.3 0-.592-.003-.89-.01a12.981 12.981 0 01-1.837-.153 5.963 5.963 0 01-1.63-.517 5.312 5.312 0 01-1.373-.958 5.03 5.03 0 01-1.003-1.316 5.236 5.236 0 01-.534-1.561 11.222 11.222 0 01-.164-1.767c-.006-.199-.015-.86-.015-.86V7.957s.01-.651.015-.843c.007-.591.062-1.18.163-1.764a5.266 5.266 0 01.534-1.566c.256-.488.594-.933.998-1.317.405-.389.87-.714 1.38-.964A5.902 5.902 0 015.572.991 12.817 12.817 0 017.417.836l.888-.011H109.36l.898.011c.612.007 1.223.059 1.828.154a6.02 6.02 0 011.643.516 5.39 5.39 0 012.374 2.28 5.27 5.27 0 01.527 1.554c.102.588.159 1.182.17 1.778.003.267.003.554.003.84.008.352.008.689.008 1.028v19.72c0 .343 0 .677-.008 1.014 0 .306 0 .587-.003.876a11.51 11.51 0 01-.168 1.747 5.25 5.25 0 01-.531 1.573c-.26.483-.597.924-1 1.306-.4.39-.865.715-1.375.963a5.94 5.94 0 01-1.64.519c-.608.095-1.223.146-1.838.153-.288.007-.59.01-.883.01l-1.066.002-99.995-.002z" fill="#000"/><path d="M24.356 19.13c.022-1.6.896-3.076 2.317-3.913-.9-1.233-2.355-1.986-3.924-2.033-1.652-.166-3.252.946-4.094.946-.858 0-2.153-.93-3.548-.902-1.836.056-3.505 1.032-4.399 2.57-1.901 3.155-.483 7.792 1.339 10.343.911 1.249 1.977 2.644 3.37 2.594 1.364-.054 1.874-.833 3.52-.833 1.631 0 2.11.833 3.531.802 1.464-.023 2.386-1.255 3.266-2.515a10.16 10.16 0 001.493-2.914c-1.739-.705-2.869-2.337-2.87-4.146zm-2.686-7.624a4.466 4.466 0 001.096-3.289 4.947 4.947 0 00-3.154 1.564 4.256 4.256 0 00-1.125 3.167 4.101 4.101 0 003.183-1.442zm19.927 14.068h-4.654l-1.118 3.162h-1.972l4.41-11.701h2.047l4.41 11.701h-2.006l-1.117-3.162zm-4.172-1.46h3.69l-1.82-5.133h-.05l-1.82 5.133zm16.815.357c0 2.651-1.48 4.355-3.715 4.355-1.155.057-2.243-.522-2.801-1.493h-.042v4.226h-1.828V20.205h1.769v1.419h.034c.583-.965 1.672-1.544 2.834-1.508 2.26 0 3.75 1.711 3.75 4.355zm-1.878 0c0-1.727-.931-2.863-2.353-2.863-1.396 0-2.335 1.16-2.335 2.863 0 1.72.94 2.87 2.335 2.87 1.422 0 2.353-1.127 2.353-2.87zm11.678 0c0 2.651-1.482 4.355-3.716 4.355-1.155.057-2.243-.522-2.801-1.493h-.043v4.226h-1.827V20.205h1.769v1.419h.033c.583-.965 1.672-1.544 2.835-1.508 2.26 0 3.75 1.711 3.75 4.355zm-1.88 0c0-1.727-.93-2.863-2.352-2.863-1.396 0-2.335 1.16-2.335 2.863 0 1.72.939 2.87 2.335 2.87 1.421 0 2.353-1.127 2.353-2.87zm8.355 1.005c.136 1.16 1.312 1.922 2.92 1.922 1.54 0 2.648-.762 2.648-1.808 0-.908-.668-1.452-2.25-1.825L72.25 23.4c-2.243-.519-3.284-1.524-3.284-3.155 0-2.018 1.836-3.405 4.444-3.405 2.58 0 4.349 1.387 4.408 3.405h-1.844c-.11-1.167-1.118-1.872-2.59-1.872-1.472 0-2.48.713-2.48 1.751 0 .827.644 1.314 2.217 1.687l1.346.316c2.505.568 3.546 1.532 3.546 3.244 0 2.19-1.82 3.56-4.714 3.56-2.708 0-4.536-1.339-4.654-3.455h1.87zm11.442-7.29v2.019h1.693v1.387h-1.693v4.703c0 .73.34 1.071 1.083 1.071.201-.003.402-.017.601-.04v1.378c-.334.06-.674.087-1.015.081-1.802 0-2.505-.649-2.505-2.303v-4.89h-1.294v-1.387h1.294v-2.019h1.836zm2.673 6.285c0-2.684 1.65-4.37 4.223-4.37 2.581 0 4.223 1.686 4.223 4.37 0 2.692-1.633 4.371-4.223 4.371-2.589 0-4.222-1.68-4.222-4.37zm6.584 0c0-1.841-.88-2.928-2.361-2.928-1.48 0-2.36 1.095-2.36 2.928 0 1.849.88 2.927 2.36 2.927s2.361-1.078 2.361-2.927zm3.369-4.266h1.743v1.452h.042c.243-.935 1.137-1.578 2.142-1.541.21 0 .42.021.626.065v1.638a2.659 2.659 0 00-.821-.106 1.882 1.882 0 00-1.424.562c-.366.377-.541.89-.48 1.401v5.06h-1.828v-8.531zm12.978 6.025c-.246 1.55-1.82 2.612-3.833 2.612-2.59 0-4.198-1.663-4.198-4.33 0-2.676 1.617-4.412 4.12-4.412 2.464 0 4.013 1.622 4.013 4.208v.6h-6.288v.106c-.059.635.17 1.264.628 1.726a2.371 2.371 0 001.767.69c.887.08 1.723-.408 2.056-1.2h1.735zm-6.177-2.546h4.45a2.004 2.004 0 00-.598-1.54 2.19 2.19 0 00-1.585-.625 2.305 2.305 0 00-1.604.63c-.426.407-.665.96-.663 1.535zm-64.58-14.7c.762-.05 1.51.214 2.035.719.525.504.774 1.197.678 1.886 0 1.675-.996 2.638-2.713 2.638H34.72V8.984h2.083zm-1.187 4.502h1.087a1.909 1.909 0 001.444-.532c.37-.365.537-.863.457-1.354a1.558 1.558 0 00-.464-1.345 1.914 1.914 0 00-1.437-.53h-1.087v3.76zm8.808-.327c-.241.746-1.035 1.229-1.886 1.145a2.073 2.073 0 01-1.525-.598 1.691 1.691 0 01-.485-1.445 1.72 1.72 0 01.484-1.45 2.1 2.1 0 011.522-.617c1.211 0 1.942.752 1.942 1.995v.272h-3.073v.044a.99.99 0 00.303.8c.221.216.532.337.856.334.42.045.829-.144 1.035-.48h.827zm-3.021-1.275h2.198a.905.905 0 00-.286-.729 1.104 1.104 0 00-.785-.297c-.3-.003-.59.104-.802.297a.967.967 0 00-.325.729zm5.816-1.69c.979 0 1.619.414 1.703 1.112h-.824c-.08-.29-.392-.476-.879-.476-.48 0-.844.207-.844.516 0 .236.22.385.692.483l.723.152c.828.175 1.216.499 1.216 1.08 0 .745-.764 1.243-1.803 1.243-1.035 0-1.71-.426-1.786-1.127h.86c.152.344.543.548.946.494.535 0 .915-.218.915-.534 0-.236-.204-.389-.64-.483l-.758-.16c-.828-.178-1.211-.516-1.211-1.105 0-.701.707-1.195 1.69-1.195zm5.793 1.369c-.113-.424-.55-.709-1.028-.671-.719 0-1.159.5-1.159 1.344 0 .858.444 1.37 1.16 1.37.473.05.914-.229 1.027-.65h.835c-.115.833-.94 1.43-1.858 1.348a2.097 2.097 0 01-1.55-.602 1.71 1.71 0 01-.492-1.466 1.7 1.7 0 01.497-1.451 2.08 2.08 0 011.54-.591c.927-.078 1.753.53 1.863 1.37h-.835zm1.687 1.545c0-.712.584-1.123 1.619-1.181l1.179-.062v-.341c0-.418-.304-.654-.891-.654-.48 0-.812.16-.907.44h-.832c.088-.68.791-1.116 1.778-1.116 1.091 0 1.707.494 1.707 1.33v2.703h-.827v-.556h-.068c-.28.406-.78.644-1.307.621a1.401 1.401 0 01-1.014-.299 1.15 1.15 0 01-.437-.885zm2.798-.338v-.33l-1.063.061c-.6.037-.871.222-.871.57 0 .357.34.564.807.564.276.026.552-.052.765-.215a.907.907 0 00.362-.65zM56.13 9.61l1.003-1.25h1.007l-1.123 1.25h-.887zm3.567.66h.827v.607h.064c.19-.432.665-.704 1.175-.672.129-.002.257.009.384.032v.77a2.578 2.578 0 00-.48-.046 1.085 1.085 0 00-.782.241.89.89 0 00-.329.689v2.336h-.859V10.27zm3.239 4.353h.879c.072.287.436.473 1.015.473.715 0 1.14-.31 1.14-.832v-.76h-.065c-.275.434-.793.69-1.343.665-1.11 0-1.798-.781-1.798-1.966 0-1.206.695-1.998 1.807-1.998.563-.018 1.09.25 1.366.697h.068v-.632h.823v3.99c0 .905-.78 1.479-2.01 1.479-1.087 0-1.79-.443-1.882-1.116zm3.05-2.424c0-.788-.449-1.293-1.18-1.293-.74 0-1.155.505-1.155 1.293 0 .79.416 1.294 1.155 1.294.736 0 1.18-.501 1.18-1.294zm1.962.909c0-.712.584-1.123 1.619-1.181l1.179-.062v-.341c0-.418-.304-.654-.891-.654-.48 0-.812.16-.907.44h-.832c.088-.68.791-1.116 1.778-1.116 1.091 0 1.707.494 1.707 1.33v2.703h-.827v-.556h-.068c-.28.406-.78.644-1.307.621a1.401 1.401 0 01-1.014-.299 1.15 1.15 0 01-.437-.885zm2.798-.338v-.33l-1.063.061c-.6.037-.871.222-.871.57 0 .357.34.564.807.564.276.026.552-.052.765-.215a.907.907 0 00.362-.65zm2.239-4.045h.859v5.502h-.859zm2.053 3.522c-.075-.71.3-1.396.965-1.771a2.238 2.238 0 012.174 0c.666.375 1.04 1.062.965 1.771.076.71-.297 1.398-.964 1.774a2.238 2.238 0 01-2.176 0c-.667-.376-1.04-1.064-.964-1.774zm3.22 0c0-.858-.423-1.36-1.167-1.36-.746 0-1.166.502-1.166 1.36 0 .865.42 1.362 1.166 1.362.744 0 1.168-.5 1.168-1.362zm8.077.912c-.24.746-1.035 1.229-1.885 1.145a2.073 2.073 0 01-1.525-.598 1.691 1.691 0 01-.485-1.445c-.078-.524.1-1.053.484-1.45a2.1 2.1 0 011.522-.617c1.21 0 1.941.752 1.941 1.995v.272h-3.072v.044a.99.99 0 00.303.8c.22.216.531.337.855.334.42.045.83-.144 1.036-.48h.826zm-3.02-1.275h2.197a.905.905 0 00-.285-.729 1.104 1.104 0 00-.786-.297 1.17 1.17 0 00-.8.297.967.967 0 00-.326.729zm4.225-1.614h.827v.629h.065c.223-.463.744-.746 1.298-.705.43-.03.85.12 1.142.406.293.287.427.679.364 1.066v2.561h-.858v-2.365c0-.636-.304-.952-.94-.952a1.051 1.051 0 00-.772.284.858.858 0 00-.267.718v2.315h-.858V10.27zm11.065 2.889c-.24.746-1.035 1.229-1.885 1.145a2.073 2.073 0 01-1.525-.598 1.691 1.691 0 01-.486-1.445c-.077-.524.1-1.053.485-1.45a2.1 2.1 0 011.522-.617c1.21 0 1.941.752 1.941 1.995v.272h-3.073v.044a.99.99 0 00.304.8c.22.216.531.337.855.334.42.045.83-.144 1.036-.48h.826zm-3.02-1.275h2.197a.905.905 0 00-.286-.729 1.104 1.104 0 00-.785-.297c-.3-.003-.589.104-.801.297a.967.967 0 00-.326.729zm4.265-3.159h.859v5.502h-.859z" fill="#FFF"/></g></svg>